# xmcd
#
# Track frame offsets:
#	150
#	15739
#	31221
#	45610
#	60509
#	76086
#	91740
#	107407
#	122883
#	138056
#
# Disc length: 2041 seconds
#
# Revision: 0
# Processed by: cddbd v1.5.2PL0 Copyright (c) Steve Scherf et al.
# Submitted via: EasyCDDAExtractor 16.0.6.1
#
DISCID=6b07f70a
DTITLE=Συλλογικός δίσκος - Λαϊκό τραγούδι 1954-1967, 1955-3
DYEAR=2008
DGENRE=Λαϊκή
TTITLE0=Ντάλια Ρένα-Μπιθικώτσης Γρηγόρης - Τύραννε τι θα κερδίσεις [Γρηγόρης Μ
TTITLE0=πιθικώτσης-Δημήτρης Γκούτης]
TTITLE1=Λύδια Γιώτα-Καζαντζόγλου Μπάμπης - Συρματοπλέγματα βαριά [Μπάμπης Μπακ
TTITLE1=άλης-Ευτ. Παπαγιαννοπούλου]
TTITLE2=Καζαντζίδης Στέλιος - Οι καλοί πεθαίνουν νέοι [Γιώργος Μητσάκης]
TTITLE3=Καζαντζίδης Στέλιος - Η καμπάνα σημαίνει [Μανώλης Χιώτης-Χρήστος Κολοκ
TTITLE3=οτρώνης]
TTITLE4=Καζαντζίδης Στέλιος-Γκρέζη Νίτσα - Μετανιώνω και δακρύζω [Μπάμπης Μπακ
TTITLE4=άλης]
TTITLE5=Παγιουμτζής Στράτος-Γκίκα Βούλα - Είχε αργήσει το φανταράκι [Γιώργος Ζ
TTITLE5=αμπέτας]
TTITLE6=Γκρέϋ Καίτη - Ήρθε το τέλος μου [Μπάμπης Μπακάλης]
TTITLE7=Λύδια Γιώτα - Κλαίω κρυφά και σκέφτομαι [Αναστ. Κουλούρης-Στελλάκης Πε
TTITLE7=ρπινιάδης]
TTITLE8=Καζαντζίδης Στέλιος - Για δυό μάτια απόψε πίνω [Μπάμπης Μπακάλης]
TTITLE9=Τσαουσάκης Πρόδρομος - Θα πάρω στράτες μακρινές [Μπάμπης Μπακάλης]
EXTD=
EXTT0=
EXTT1=
EXTT2=
EXTT3=
EXTT4=
EXTT5=
EXTT6=
EXTT7=
EXTT8=
EXTT9=
PLAYORDER=
